<?xml version="1.0" encoding="UTF-8"?>
<!DOCTYPE svg PUBLIC "-//W3C//DTD SVG 1.1//EN" "http://www.w3.org/Graphics/SVG/1.1/DTD/svg11.dtd">
<svg xmlns="http://www.w3.org/2000/svg" version="1.1" width="3264px" height="3264px" style="shape-rendering:geometricPrecision; text-rendering:geometricPrecision; image-rendering:optimizeQuality; fill-rule:evenodd; clip-rule:evenodd" xmlns:xlink="http://www.w3.org/1999/xlink">
<g><path style="opacity:0.996" fill="#fe9800" d="M 1619.5,858.5 C 2119.83,858.5 2620.17,858.5 3120.5,858.5C 3120.67,1358.5 3120.5,1858.5 3120,2358.5C 3119.5,2359 3119,2359.5 3118.5,2360C 2619.5,2360.5 2120.5,2360.67 1621.5,2360.5C 1621.54,2359.24 1621.04,2358.24 1620,2357.5C 1619.5,1857.83 1619.33,1358.17 1619.5,858.5 Z"/></g>
<g><path style="opacity:0.998" fill="#4cae50" d="M 1616.5,858.5 C 1616.5,859.167 1616.5,859.833 1616.5,860.5C 1616.33,1359.83 1616.5,1859.17 1617,2358.5C 1617.72,2359.04 1618.22,2359.71 1618.5,2360.5C 1369.5,2361.17 1120.33,2361.5 871,2361.5C 621.833,2361.33 372.667,2361.17 123.5,2361C 121.899,2360.73 120.399,2360.23 119,2359.5C 118.333,1859.5 118.333,1359.5 119,859.5C 618.097,858.5 1117.26,858.167 1616.5,858.5 Z"/></g>
<g><path style="opacity:0.961" fill="#6daa41" d="M 1616.5,858.5 C 1616.83,858.5 1617.17,858.5 1617.5,858.5C 1618.5,1358.1 1618.83,1857.76 1618.5,2357.5C 1617.83,1858.5 1617.17,1359.5 1616.5,860.5C 1616.5,859.833 1616.5,859.167 1616.5,858.5 Z"/></g>
<g><path style="opacity:1" fill="#59ad4a" d="M 1616.5,860.5 C 1617.17,1359.5 1617.83,1858.5 1618.5,2357.5C 1619.17,2358.5 1619.83,2359.5 1620.5,2360.5C 1619.83,2360.5 1619.17,2360.5 1618.5,2360.5C 1618.22,2359.71 1617.72,2359.04 1617,2358.5C 1616.5,1859.17 1616.33,1359.83 1616.5,860.5 Z"/></g>
<g><path style="opacity:1" fill="#bbe0bc" d="M 984.5,986.5 C 973.815,986.39 963.148,986.723 952.5,987.5C 958.595,985.986 964.928,985.32 971.5,985.5C 976.013,985.501 980.347,985.834 984.5,986.5 Z"/></g>
<g><path style="opacity:1" fill="#fdfefd" d="M 984.5,986.5 C 1007.16,989.326 1025.99,999.326 1041,1016.5C 1056.39,1037 1066.23,1060 1070.5,1085.5C 1072.27,1103.77 1072.94,1122.1 1072.5,1140.5C 1071.32,1170.39 1065.65,1199.39 1055.5,1227.5C 1057.9,1236.36 1055.07,1243.03 1047,1247.5C 1019.56,1309.61 977.057,1358.78 919.5,1395C 900.92,1406.79 881.586,1417.29 861.5,1426.5C 857.967,1431.96 855.967,1437.96 855.5,1444.5C 852.915,1452.87 851.248,1461.53 850.5,1470.5C 836.471,1567.04 821.137,1663.37 804.5,1759.5C 801.3,1770.83 798.967,1782.5 797.5,1794.5C 786.837,1853.56 773.504,1911.89 757.5,1969.5C 753.448,1976.81 751.448,1984.47 751.5,1992.5C 761.626,1995.95 771.293,2000.45 780.5,2006C 798.414,2014.3 816.414,2022.3 834.5,2030C 853.385,2036.29 872.052,2042.96 890.5,2050C 925.856,2061.22 958.523,2056.22 988.5,2035C 1002.94,2023.28 1015.44,2009.78 1026,1994.5C 1041.5,1969.84 1055.16,1944.17 1067,1917.5C 1103.14,1824.67 1131.14,1729 1151,1630.5C 1158.9,1613.14 1171.07,1609.64 1187.5,1620C 1201.05,1630.73 1205.72,1644.56 1201.5,1661.5C 1199.31,1670.95 1197.65,1680.62 1196.5,1690.5C 1182.87,1773.35 1163.37,1854.69 1138,1934.5C 1123.19,1975.79 1104.85,2015.46 1083,2053.5C 1018.84,2157.79 927.678,2191.96 809.5,2156C 772.22,2143.03 735.554,2128.86 699.5,2113.5C 693.534,2120.74 688.034,2128.41 683,2136.5C 667.885,2156.62 649.385,2172.79 627.5,2185C 580.291,2202.59 541.458,2191.43 511,2151.5C 491.51,2121.71 481.177,2089.04 480,2053.5C 480.667,2052.83 481.333,2052.17 482,2051.5C 479.421,2023.49 485.754,1997.82 501,1974.5C 517.797,1952.74 539.964,1943.57 567.5,1947C 590.59,1948.76 613.59,1951.26 636.5,1954.5C 642.82,1923.23 648.487,1891.9 653.5,1860.5C 655.314,1855.32 656.814,1849.99 658,1844.5C 658.498,1841.52 658.665,1838.52 658.5,1835.5C 669.523,1774.7 679.689,1713.7 689,1652.5C 701.007,1587.15 713.507,1521.82 726.5,1456.5C 712.614,1456.84 698.78,1456.18 685,1454.5C 680.013,1456.49 675.013,1458.49 670,1460.5C 662.876,1460.22 655.71,1460.06 648.5,1460C 641.645,1456.12 637.979,1450.28 637.5,1442.5C 591.93,1428.14 555.43,1401.14 528,1361.5C 521.164,1350.83 516.997,1339.16 515.5,1326.5C 516.193,1312.97 523.193,1306.14 536.5,1306C 539.595,1306.71 542.595,1307.71 545.5,1309C 556.321,1315.67 566.988,1322.5 577.5,1329.5C 595.882,1337.96 614.882,1343.96 634.5,1347.5C 639.272,1348.87 644.272,1349.7 649.5,1350C 656.5,1350.17 663.5,1350.33 670.5,1350.5C 680.713,1350.69 690.713,1350.03 700.5,1348.5C 718.355,1345.43 736.189,1341.76 754,1337.5C 766.707,1287.38 781.04,1237.71 797,1188.5C 802.804,1172.76 808.804,1157.09 815,1141.5C 829.299,1108.57 846.966,1077.57 868,1048.5C 882.624,1028.87 900.124,1012.37 920.5,999C 930.507,993.276 941.174,989.443 952.5,987.5C 963.148,986.723 973.815,986.39 984.5,986.5 Z"/></g>
<g><path style="opacity:1" fill="#fffefe" d="M 2907.5,1147.5 C 2908.55,1158.06 2910.22,1168.39 2912.5,1178.5C 2915.11,1207.17 2911.94,1235.17 2903,1262.5C 2892.17,1286.81 2880.84,1310.81 2869,1334.5C 2846.93,1382.67 2827.93,1432.34 2812,1483.5C 2809.87,1493.14 2807.87,1502.81 2806,1512.5C 2800.16,1529.81 2788,1538.48 2769.5,1538.5C 2743.83,1533.53 2718.16,1528.37 2692.5,1523C 2681.46,1521.58 2670.46,1520.08 2659.5,1518.5C 2669.71,1531.9 2680.21,1545.23 2691,1558.5C 2719.16,1594.79 2743.83,1633.46 2765,1674.5C 2778.39,1701.51 2787.89,1729.85 2793.5,1759.5C 2793.55,1766.11 2794.55,1772.44 2796.5,1778.5C 2797.83,1797.84 2797.5,1817.17 2795.5,1836.5C 2794.11,1843.98 2793.11,1851.64 2792.5,1859.5C 2780.66,1935.68 2746.33,1999.85 2689.5,2052C 2652.39,2084.4 2611.39,2111.07 2566.5,2132C 2503.92,2160.63 2438.59,2181.3 2370.5,2194C 2337.73,2199.73 2304.73,2203.23 2271.5,2204.5C 2238.47,2206.11 2205.47,2205.77 2172.5,2203.5C 2146.63,2199.19 2121.3,2192.86 2096.5,2184.5C 2084.5,2179.72 2072.17,2175.72 2059.5,2172.5C 2029.52,2161.89 1999.52,2151.39 1969.5,2141C 1937.39,2126.7 1909.22,2106.87 1885,2081.5C 1871.76,2067.03 1862.09,2050.36 1856,2031.5C 1852.89,2019.2 1849.89,2006.87 1847,1994.5C 1845,1989.16 1843,1983.82 1841,1978.5C 1840.33,1958.83 1840.33,1939.17 1841,1919.5C 1858.16,1878.16 1880.16,1839.83 1907,1804.5C 1977.97,1717.96 2068.13,1688.12 2177.5,1715C 2203.94,1724.05 2228.28,1737.05 2250.5,1754C 2261.42,1762.69 2269.25,1773.53 2274,1786.5C 2275.35,1797.2 2274.02,1807.53 2270,1817.5C 2268.69,1819.64 2267.19,1821.64 2265.5,1823.5C 2232.04,1839.05 2200.71,1857.88 2171.5,1880C 2107.35,1932.35 2093.85,1995.85 2131,2070.5C 2151.71,2101.61 2180.87,2118.45 2218.5,2121C 2240.75,2122.63 2262.75,2120.97 2284.5,2116C 2313.46,2108.36 2336.29,2092.19 2353,2067.5C 2358.41,2058.02 2363.24,2048.35 2367.5,2038.5C 2369.61,2034.5 2370.94,2030.16 2371.5,2025.5C 2372.62,2019.43 2373.95,2013.43 2375.5,2007.5C 2378.12,1998.83 2379.45,1989.83 2379.5,1980.5C 2380.34,1963.18 2380.67,1945.85 2380.5,1928.5C 2367.13,1926.79 2358.79,1919.45 2355.5,1906.5C 2355.46,1898.08 2356.12,1889.75 2357.5,1881.5C 2358.42,1876.41 2359.75,1871.41 2361.5,1866.5C 2355.16,1849.48 2346.99,1833.48 2337,1818.5C 2325.47,1804.13 2313.47,1790.13 2301,1776.5C 2252,1724.83 2203,1673.17 2154,1621.5C 2146.21,1592.39 2129.88,1569.39 2105,1552.5C 2097.18,1536.19 2088.84,1520.19 2080,1504.5C 2080.76,1499.19 2081.76,1493.86 2083,1488.5C 2085.21,1476.49 2082.88,1465.49 2076,1455.5C 2072.38,1450.21 2068.38,1445.21 2064,1440.5C 2056.55,1328.11 2095.71,1235.94 2181.5,1164C 2313.93,1061.69 2461.93,1029.69 2625.5,1068C 2647.39,1073.56 2669.06,1079.89 2690.5,1087C 2699.88,1090.21 2709.22,1090.21 2718.5,1087C 2730.86,1074.3 2743.53,1061.97 2756.5,1050C 2791.04,1045.87 2823.71,1051.87 2854.5,1068C 2883.26,1086.99 2900.92,1113.49 2907.5,1147.5 Z"/></g>
<g><path style="opacity:1" fill="#4eaf51" d="M 988.5,1069.5 C 995.588,1068.35 1001.92,1069.85 1007.5,1074C 1018.97,1086.79 1022.47,1101.63 1018,1118.5C 1010.33,1155.84 993.663,1188.51 968,1216.5C 943.585,1242.1 916.418,1264.1 886.5,1282.5C 895.325,1234.18 909.158,1187.18 928,1141.5C 937.905,1118.83 951.405,1098.67 968.5,1081C 974.601,1076.04 981.268,1072.21 988.5,1069.5 Z"/></g>
<g><path style="opacity:1" fill="#a4d6a6" d="M 1070.5,1085.5 C 1071.64,1089.3 1072.47,1093.3 1073,1097.5C 1073.83,1112.01 1073.66,1126.34 1072.5,1140.5C 1072.94,1122.1 1072.27,1103.77 1070.5,1085.5 Z"/></g>
<g><path style="opacity:1" fill="#ff9906" d="M 2343.5,1252.5 C 2340.67,1261.16 2339,1270.16 2338.5,1279.5C 2335.1,1316.55 2341.27,1351.88 2357,1385.5C 2364.99,1401.49 2373.99,1416.82 2384,1431.5C 2405.61,1460.46 2430.11,1486.96 2457.5,1511C 2497.36,1546.2 2540.02,1577.53 2585.5,1605C 2611.24,1628.06 2634.07,1653.56 2654,1681.5C 2664.6,1696.7 2671.93,1713.37 2676,1731.5C 2677.02,1744.26 2676.36,1756.93 2674,1769.5C 2672.21,1774.41 2669.88,1779.08 2667,1783.5C 2657.02,1790.13 2648.68,1788.46 2642,1778.5C 2622.17,1748.17 2602.83,1717.5 2584,1686.5C 2576.06,1674.22 2567.72,1662.22 2559,1650.5C 2502.73,1593.21 2442.56,1540.71 2378.5,1493C 2345.23,1462.39 2320.73,1425.89 2305,1383.5C 2286.35,1322.43 2292.68,1264.09 2324,1208.5C 2336.41,1184.54 2352.57,1163.38 2372.5,1145C 2385.33,1134.25 2399.99,1127.25 2416.5,1124C 2419.88,1123.18 2423.22,1123.34 2426.5,1124.5C 2389.75,1156.68 2362.91,1195.68 2346,1241.5C 2344.85,1245.11 2344.02,1248.78 2343.5,1252.5 Z"/></g>
<g><path style="opacity:1" fill="#ff9802" d="M 2607.5,1393.5 C 2605.96,1400.43 2605.29,1407.6 2605.5,1415C 2605.5,1420.34 2605.83,1425.51 2606.5,1430.5C 2609.25,1454.16 2616.92,1476.16 2629.5,1496.5C 2628.83,1496.83 2628.17,1497.17 2627.5,1497.5C 2564.74,1464.85 2508.9,1422.85 2460,1371.5C 2445.7,1355.91 2434.7,1338.24 2427,1318.5C 2421.48,1287.21 2422.81,1256.21 2431,1225.5C 2441.24,1192.26 2462.74,1169.76 2495.5,1158C 2527.47,1148.3 2559.8,1146.96 2592.5,1154C 2599.93,1156.1 2605.59,1160.43 2609.5,1167C 2628.57,1180.4 2643.73,1197.23 2655,1217.5C 2655.71,1220.59 2656.71,1223.59 2658,1226.5C 2659.23,1241.53 2657.73,1256.2 2653.5,1270.5C 2636.16,1304.14 2622,1339.14 2611,1375.5C 2610.16,1381.59 2608.99,1387.59 2607.5,1393.5 Z"/></g>
<g><path style="opacity:1" fill="#ffdca9" d="M 2907.5,1147.5 C 2910.34,1157.52 2912,1167.85 2912.5,1178.5C 2910.22,1168.39 2908.55,1158.06 2907.5,1147.5 Z"/></g>
<g><path style="opacity:1" fill="#ff9a09" d="M 2807.5,1156.5 C 2833.73,1155.85 2843.56,1168.51 2837,1194.5C 2836.16,1201.59 2833.66,1207.93 2829.5,1213.5C 2822.11,1220.04 2814.94,1220.04 2808,1213.5C 2806.33,1209.8 2804.66,1206.13 2803,1202.5C 2801.51,1189.87 2801.18,1177.2 2802,1164.5C 2803.24,1161.42 2805.08,1158.76 2807.5,1156.5 Z"/></g>
<g><path style="opacity:1" fill="#57b35a" d="M 851.5,1195.5 C 855.273,1195.26 858.94,1195.76 862.5,1197C 863.672,1198.87 863.505,1200.7 862,1202.5C 856.585,1206.12 851.085,1209.62 845.5,1213C 842.2,1212.95 838.866,1212.79 835.5,1212.5C 835.838,1210.15 836.338,1207.81 837,1205.5C 841.987,1202.27 846.82,1198.93 851.5,1195.5 Z"/></g>
<g><path style="opacity:1" fill="#ffdfb1" d="M 2343.5,1252.5 C 2342.29,1261.61 2340.63,1270.61 2338.5,1279.5C 2339,1270.16 2340.67,1261.16 2343.5,1252.5 Z"/></g>
<g><path style="opacity:1" fill="#58b35a" d="M 833.5,1272.5 C 836.909,1272.25 840.242,1272.58 843.5,1273.5C 844.712,1275.84 844.378,1278.01 842.5,1280C 835.833,1284 829.167,1288 822.5,1292C 814.122,1294.51 811.122,1291.67 813.5,1283.5C 819.939,1279.28 826.606,1275.62 833.5,1272.5 Z"/></g>
<g><path style="opacity:1" fill="#a4d6a5" d="M 634.5,1347.5 C 656.462,1349.73 678.462,1350.07 700.5,1348.5C 690.713,1350.03 680.713,1350.69 670.5,1350.5C 663.5,1350.33 656.5,1350.17 649.5,1350C 644.272,1349.7 639.272,1348.87 634.5,1347.5 Z"/></g>
<g><path style="opacity:1" fill="#57b35a" d="M 758.5,1380.5 C 766.189,1379.54 768.189,1382.37 764.5,1389C 754.928,1394.29 745.261,1399.29 735.5,1404C 732.571,1404.78 729.737,1404.61 727,1403.5C 725.877,1400.04 726.71,1397.21 729.5,1395C 738.98,1389.59 748.646,1384.76 758.5,1380.5 Z"/></g>
<g><path style="opacity:1" fill="#5eb661" d="M 626.5,1385.5 C 629.5,1385.5 632.5,1385.5 635.5,1385.5C 634.749,1390.52 631.749,1392.52 626.5,1391.5C 626.5,1389.5 626.5,1387.5 626.5,1385.5 Z"/></g>
<g><path style="opacity:1" fill="#ffd08c" d="M 2607.5,1393.5 C 2606.68,1405.82 2606.35,1418.15 2606.5,1430.5C 2605.83,1425.51 2605.5,1420.34 2605.5,1415C 2605.29,1407.6 2605.96,1400.43 2607.5,1393.5 Z"/></g>
<g><path style="opacity:1" fill="#b5deb6" d="M 855.5,1444.5 C 855.664,1447.19 855.497,1449.85 855,1452.5C 853.499,1458.62 851.999,1464.62 850.5,1470.5C 851.248,1461.53 852.915,1452.87 855.5,1444.5 Z"/></g>
<g><path style="opacity:1" fill="#5fb661" d="M 747.5,1582.5 C 754.063,1582.62 757.063,1585.95 756.5,1592.5C 753.415,1593.54 750.415,1594.87 747.5,1596.5C 745.015,1596.76 743.348,1595.76 742.5,1593.5C 742.837,1589.16 744.503,1585.5 747.5,1582.5 Z"/></g>
<g><path style="opacity:1" fill="#57b359" d="M 770.5,1637.5 C 774.548,1637.39 778.548,1637.73 782.5,1638.5C 782.477,1640.93 781.977,1643.26 781,1645.5C 778.876,1646.62 777.043,1648.12 775.5,1650C 762.463,1656.85 749.463,1663.68 736.5,1670.5C 734.116,1669.99 731.783,1669.32 729.5,1668.5C 728.017,1665.39 728.35,1662.56 730.5,1660C 744.058,1652.73 757.391,1645.23 770.5,1637.5 Z"/></g>
<g><path style="opacity:1" fill="#98d099" d="M 1201.5,1661.5 C 1201,1671.5 1199.33,1681.17 1196.5,1690.5C 1197.65,1680.62 1199.31,1670.95 1201.5,1661.5 Z"/></g>
<g><path style="opacity:1" fill="#54b257" d="M 756.5,1714.5 C 760.724,1714.71 762.391,1716.71 761.5,1720.5C 757.27,1724.9 752.603,1728.73 747.5,1732C 745.5,1732.33 743.5,1732.67 741.5,1733C 737.513,1737 732.846,1740 727.5,1742C 724.24,1742.78 721.073,1742.62 718,1741.5C 717.952,1738.12 718.452,1734.79 719.5,1731.5C 728.858,1728.69 737.191,1723.85 744.5,1717C 748.796,1716.92 752.796,1716.09 756.5,1714.5 Z"/></g>
<g><path style="opacity:1" fill="#ffd497" d="M 2793.5,1759.5 C 2795.38,1765.57 2796.38,1771.9 2796.5,1778.5C 2794.55,1772.44 2793.55,1766.11 2793.5,1759.5 Z"/></g>
<g><path style="opacity:1" fill="#ff9909" d="M 2205.5,1779.5 C 2212.53,1780.17 2218.86,1782.5 2224.5,1786.5C 2202,1787.33 2179.34,1787.83 2156.5,1788C 2155.58,1788.28 2154.92,1788.78 2154.5,1789.5C 2122.05,1805.89 2089.71,1822.56 2057.5,1839.5C 2059.12,1813.45 2072.12,1795.61 2096.5,1786C 2105.8,1782.09 2115.47,1779.92 2125.5,1779.5C 2152.18,1776.88 2178.84,1776.88 2205.5,1779.5 Z"/></g>
<g><path style="opacity:1" fill="#ffbf64" d="M 2205.5,1779.5 C 2178.84,1776.88 2152.18,1776.88 2125.5,1779.5C 2125.92,1778.78 2126.58,1778.28 2127.5,1778C 2148.81,1776.46 2170.14,1776.12 2191.5,1777C 2196.46,1777.03 2201.12,1777.86 2205.5,1779.5 Z"/></g>
<g><path style="opacity:1" fill="#58b35a" d="M 744.5,1784.5 C 748.795,1784.31 752.795,1785.31 756.5,1787.5C 755.498,1789.51 754.498,1791.51 753.5,1793.5C 743.993,1798.54 734.66,1803.71 725.5,1809C 718.678,1809.43 716.345,1806.43 718.5,1800C 727.065,1794.56 735.731,1789.39 744.5,1784.5 Z"/></g>
<g><path style="opacity:1" fill="#ffcc83" d="M 2224.5,1786.5 C 2225.04,1786.56 2225.38,1786.89 2225.5,1787.5C 2201.82,1788.21 2178.15,1788.87 2154.5,1789.5C 2154.92,1788.78 2155.58,1788.28 2156.5,1788C 2179.34,1787.83 2202,1787.33 2224.5,1786.5 Z"/></g>
<g><path style="opacity:1" fill="#a3d5a4" d="M 804.5,1759.5 C 803.176,1771.48 800.843,1783.14 797.5,1794.5C 798.967,1782.5 801.3,1770.83 804.5,1759.5 Z"/></g>
<g><path style="opacity:1" fill="#ffd79e" d="M 2795.5,1836.5 C 2795.58,1844.45 2794.58,1852.12 2792.5,1859.5C 2793.11,1851.64 2794.11,1843.98 2795.5,1836.5 Z"/></g>
<g><path style="opacity:1" fill="#bae0bb" d="M 658.5,1835.5 C 658.665,1838.52 658.498,1841.52 658,1844.5C 656.814,1849.99 655.314,1855.32 653.5,1860.5C 654.431,1851.89 656.098,1843.55 658.5,1835.5 Z"/></g>
<g><path style="opacity:1" fill="#5fb661" d="M 692.5,1879.5 C 701.633,1878.5 704.3,1882 700.5,1890C 697.16,1889.85 693.826,1889.35 690.5,1888.5C 690.405,1885.31 691.071,1882.31 692.5,1879.5 Z"/></g>
<g><path style="opacity:1" fill="#ffdba7" d="M 2357.5,1881.5 C 2356.12,1889.75 2355.46,1898.08 2355.5,1906.5C 2353.95,1898.02 2354.62,1889.68 2357.5,1881.5 Z"/></g>
<g><path style="opacity:1" fill="#a5d6a6" d="M 757.5,1969.5 C 755.091,1977.06 753.091,1984.73 751.5,1992.5C 751.448,1984.47 753.448,1976.81 757.5,1969.5 Z"/></g>
<g><path style="opacity:1" fill="#ffd597" d="M 2379.5,1980.5 C 2379.45,1989.83 2378.12,1998.83 2375.5,2007.5C 2376.67,1998.34 2378,1989.34 2379.5,1980.5 Z"/></g>
<g><path style="opacity:0.875" fill="#9ca52c" d="M 1617.5,858.5 C 1618.17,858.5 1618.83,858.5 1619.5,858.5C 1619.33,1358.17 1619.5,1857.83 1620,2357.5C 1621.04,2358.24 1621.54,2359.24 1621.5,2360.5C 1621.17,2360.5 1620.83,2360.5 1620.5,2360.5C 1619.83,2359.5 1619.17,2358.5 1618.5,2357.5C 1618.83,1857.76 1618.5,1358.1 1617.5,858.5 Z"/></g>
<g><path style="opacity:1" fill="#7ec47f" d="M 702.5,2008.5 C 704.989,2008.3 707.323,2008.8 709.5,2010C 710.971,2016.1 708.971,2017.6 703.5,2014.5C 702.534,2012.6 702.201,2010.6 702.5,2008.5 Z"/></g>
<g><path style="opacity:1" fill="#ffd395" d="M 2371.5,2025.5 C 2370.94,2030.16 2369.61,2034.5 2367.5,2038.5C 2368.06,2033.84 2369.39,2029.5 2371.5,2025.5 Z"/></g>
<g><path style="opacity:1" fill="#5cb55e" d="M 741.5,2054.5 C 744.206,2054.58 746.873,2054.91 749.5,2055.5C 749.663,2057.86 749.497,2060.19 749,2062.5C 745.018,2063.8 741.518,2065.97 738.5,2069C 733.867,2070.99 729.201,2072.99 724.5,2075C 712.802,2077.67 710.802,2074.67 718.5,2066C 726.162,2062.02 733.829,2058.18 741.5,2054.5 Z"/></g>
<g><path style="opacity:1" fill="#50b054" d="M 556.5,2066.5 C 561.179,2066.33 565.845,2066.5 570.5,2067C 581.661,2070.26 592.828,2073.43 604,2076.5C 602.566,2080.73 601.066,2085.07 599.5,2089.5C 597.165,2092.17 595.331,2095.17 594,2098.5C 591.833,2101.33 589.333,2103.83 586.5,2106C 574.192,2110.59 561.858,2110.59 549.5,2106C 536.858,2096.6 535.192,2085.6 544.5,2073C 548.147,2070.01 552.147,2067.85 556.5,2066.5 Z"/></g>
<g><path style="opacity:1" fill="#5bb55d" d="M 824.5,2076.5 C 830.507,2076.84 832.507,2079.84 830.5,2085.5C 827.404,2086.8 824.57,2088.46 822,2090.5C 817.572,2088.21 816.072,2084.71 817.5,2080C 819.994,2078.97 822.328,2077.8 824.5,2076.5 Z"/></g>
<g><path style="opacity:1" fill="#6ebd70" d="M 642.5,2110.5 C 643.675,2110.28 644.675,2110.61 645.5,2111.5C 643.35,2113.15 641.35,2114.98 639.5,2117C 637.527,2117.5 635.527,2117.66 633.5,2117.5C 634.499,2112.52 637.499,2110.18 642.5,2110.5 Z"/></g>
<g><path style="opacity:1" fill="#ff9d17" d="M 2106.5,2113.5 C 2109.25,2113.19 2111.91,2113.52 2114.5,2114.5C 2130.83,2125 2147.17,2135.5 2163.5,2146C 2147.51,2147.87 2132.51,2144.87 2118.5,2137C 2110.64,2131.1 2106.64,2123.27 2106.5,2113.5 Z"/></g>
<g><path style="opacity:1" fill="#81c683" d="M 577.5,2145.5 C 578.5,2145.5 579.5,2145.5 580.5,2145.5C 580.833,2148.5 579.5,2149.83 576.5,2149.5C 576.433,2148.04 576.766,2146.71 577.5,2145.5 Z"/></g>
<g><path style="opacity:1" fill="#ffdeb0" d="M 2059.5,2172.5 C 2072.17,2175.72 2084.5,2179.72 2096.5,2184.5C 2083.83,2181.28 2071.5,2177.28 2059.5,2172.5 Z"/></g>
<g><path style="opacity:1" fill="#ffd9a3" d="M 2172.5,2203.5 C 2205.47,2205.77 2238.47,2206.11 2271.5,2204.5C 2255.19,2205.98 2238.69,2206.64 2222,2206.5C 2211.5,2206.33 2201,2206.17 2190.5,2206C 2184.27,2205.82 2178.27,2204.99 2172.5,2203.5 Z"/></g>
</svg>
